<?xml version="1.0" encoding="UTF-8"?>
<svg version="1.1" xmlns="http://www.w3.org/2000/svg" width="3464" height="3464">
<path d="M0 0 C0.91535096 0.00291284 1.83070191 0.00582568 2.77379078 0.00882679 C4.22064995 0.00754515 4.22064995 0.00754515 5.6967386 0.00623763 C8.95506132 0.00457989 12.21333346 0.01010898 15.47165149 0.01555592 C17.79689257 0.01583775 20.12213374 0.01568013 22.44737476 0.01511341 C28.781832 0.01482529 35.11627049 0.02072436 41.45072335 0.02768737 C47.39333475 0.03328789 53.3359454 0.03430919 59.27855908 0.03533924 C71.05223667 0.03753007 82.82590735 0.04419098 94.59958118 0.05364186 C106.03935947 0.06281519 117.47913589 0.06989641 128.91891712 0.07414967 C129.62358535 0.07441239 130.32825359 0.07467512 131.0542754 0.0749458 C134.58924557 0.0762508 138.12421575 0.07751452 141.65918595 0.0787577 C171.00414962 0.08913127 200.34910654 0.10682453 229.6940636 0.12908131 C231.13674643 3.97253185 232.57894471 7.81616404 234.02105945 11.65982777 C234.4271239 12.74160597 234.83318834 13.82338416 235.25155777 14.93794352 C238.13553208 22.62558014 240.98774754 30.32345089 243.7956261 38.03923756 C244.46324835 39.8693586 245.13087059 41.69947964 245.79849285 43.52960068 C246.49464857 45.43858638 247.19027128 47.34776544 247.88571399 49.257011 C249.36954926 53.33065797 250.85495298 57.40373206 252.34054798 61.47673756 C254.16371835 66.47554251 255.9865552 71.47446882 257.80893558 76.47356182 C261.03645403 85.32706694 264.26672281 94.17956536 267.4987511 103.03142506 C267.73430839 103.67657126 267.96986568 104.32171746 268.21256107 104.98641354 C269.39855457 108.23457625 270.58459741 111.48272094 271.77066272 114.73085743 C273.92220091 120.62309432 276.07329749 126.51549243 278.22443241 132.40787655 C279.4226252 135.68995123 280.62084579 138.97201576 281.8190636 142.25408131 C282.2982304 143.56658126 282.77739707 144.87908126 283.2565636 146.19158131 C283.4937511 146.84126881 283.7309386 147.49095631 283.9753136 148.16033131 C284.6940636 150.12908131 285.4128136 152.09783131 286.1315636 154.06658131 C286.48734627 155.04111634 286.48734627 155.04111634 286.85031646 156.03533894 C287.32947377 157.34781344 287.8086309 158.66028801 288.28778785 159.97276264 C289.48584625 163.25440327 290.68390774 166.53604277 291.88197559 169.81767994 C294.03653651 175.71926419 296.19107603 181.62085625 298.3454985 187.52249104 C299.54109851 190.7976101 300.73671685 194.07272247 301.93234485 197.34783131 C302.16916792 197.99654698 302.40599098 198.64526264 302.6499905 199.31363636 C306.03801344 208.59413727 309.42708013 217.87425652 312.8167519 227.15415531 C314.76316572 232.4829665 316.70932904 237.81186916 318.65543598 243.14079243 C319.13934457 244.46583508 319.62326688 245.79087272 320.10720295 247.11590534 C325.36417114 261.50969361 330.61661223 275.90507854 335.84640735 290.30876881 C336.26060428 291.44947331 336.67480121 292.59017781 337.10154957 293.76544911 C337.92990987 296.04686462 338.7582638 298.32828245 339.58661121 300.60970265 C339.9933205 301.72984761 340.40002979 302.84999256 340.8190636 304.00408131 C341.22424213 305.12011738 341.62942066 306.23615345 342.04687732 307.3860088 C348.85313791 326.12758857 355.74067525 344.83847529 362.64911121 363.54259449 C369.18380536 381.24147131 375.62461015 398.97182462 381.99402088 416.7307964 C387.79177743 432.8932289 393.67625736 449.02178788 399.61371082 465.13338429 C405.95272353 482.33872886 412.21254291 499.57206391 418.4440636 516.81658131 C424.25484419 532.8952872 430.08003499 548.96764338 436.0065636 565.00408131 C440.84261745 578.10023253 445.67452797 591.19787084 450.46832508 604.30956227 C451.19690393 606.29990822 451.92720549 608.28962448 452.65930408 610.27867848 C453.67282856 613.03316446 454.68027671 615.78979936 455.6862511 618.54705006 C455.99172367 619.37320317 456.29719623 620.19935627 456.61192554 621.05054432 C458.6940636 626.78675692 458.6940636 626.78675692 458.6940636 630.12908131 C387.7440636 630.12908131 316.7940636 630.12908131 243.6940636 630.12908131 C217.6940636 544.12908131 217.6940636 544.12908131 217.6940636 541.12908131 C145.0940636 541.12908131 72.4940636 541.12908131 -2.3059364 541.12908131 C-2.9659364 544.09908131 -3.6259364 547.06908131 -4.3059364 550.12908131 C-5.04797027 552.78680453 -5.80878983 555.42556645 -6.61257702 558.06389576 C-6.83398861 558.80005619 -7.0554002 559.53621662 -7.28352123 560.29468495 C-8.00642779 562.69492576 -8.73410725 565.09368618 -9.4621864 567.49236256 C-9.97038694 569.1737999 -10.47839978 570.85529399 -10.98623425 572.53684193 C-12.04652358 576.04489343 -13.10921599 579.55220543 -14.17361218 583.05901295 C-15.53680396 587.55102237 -16.89370954 592.04490233 -18.24881512 596.53935677 C-19.29454886 600.00509489 -20.34369769 603.46979189 -21.3938728 606.93418652 C-21.89571184 608.59124545 -22.39646359 610.24863408 -22.89610058 611.9063583 C-23.59368088 614.21905913 -24.29587595 616.53030919 -24.99929577 618.84123951 C-25.20403012 619.52337513 -25.40876446 620.20551075 -25.61970288 620.90831715 C-26.62598384 624.19677678 -27.75699983 627.03120818 -29.3059364 630.12908131 C-97.6159364 630.12908131 -165.9259364 630.12908131 -236.3059364 630.12908131 C-235.02232361 624.35282378 -233.88684829 619.55731815 -231.85671765 614.15251881 C-231.61191662 613.4946941 -231.3671156 612.83686939 -231.11489636 612.15911061 C-230.57542722 610.71104875 -230.03333972 609.26396027 -229.48895031 607.81774098 C-227.9150666 603.63465879 -226.36258904 599.44359899 -224.8059364 595.25408131 C-224.45827725 594.32010517 -224.1106181 593.38612904 -223.75242382 592.4238506 C-219.31473997 580.49023821 -214.95967368 568.52635374 -210.59884411 556.56450611 C-209.10763285 552.47408802 -207.61534672 548.38406262 -206.12283093 544.29412037 C-204.37944081 539.51658678 -202.63616711 534.73901079 -200.89318043 529.96133 C-196.42902413 517.72469486 -191.9626492 505.48887063 -187.4934364 493.25408131 C-187.10616375 492.19385761 -186.71889111 491.13363392 -186.31988293 490.04128224 C-180.74937973 474.79327026 -175.15845044 459.55285721 -169.5559364 444.31658131 C-162.71849607 425.72150149 -155.91058086 407.1157426 -149.1184364 388.50408131 C-148.87782482 387.84476361 -148.63721325 387.1854459 -148.38931042 386.50614887 C-145.93324695 379.77592004 -143.47762847 373.04552889 -141.02223545 366.31505543 C-136.11092231 352.85273779 -131.19654039 339.39154063 -126.28202206 325.9303928 C-125.556101 323.94203218 -124.83020045 321.95366408 -124.10430676 319.96529347 C-115.27953546 295.79249499 -106.44920084 271.62173122 -97.61648327 247.45183522 C-94.47383054 238.85217954 -91.33165175 230.25235071 -88.18948132 221.65251881 C-86.6037921 217.3126438 -85.01801228 212.97280192 -83.4321571 208.63298756 C-79.85963698 198.85634296 -76.28756195 189.07953687 -72.71771008 179.30191761 C-64.32459236 156.31377144 -55.91763871 133.3308993 -47.46951061 110.36290699 C-42.75586205 97.54642498 -38.05922477 84.72384579 -33.38015515 71.89470631 C-33.12588631 71.19764891 -32.87161747 70.50059151 -32.60964352 69.78241116 C-30.33331144 63.5420004 -28.05703 57.30157154 -25.78432995 51.05983692 C-20.9559536 37.79930559 -16.11486738 24.54364646 -11.18484265 11.32048756 C-10.80601437 10.29922276 -10.42718609 9.27795796 -10.03687817 8.22574574 C-9.51759495 6.83900402 -9.51759495 6.83900402 -8.98782116 5.42424732 C-8.68562161 4.61455998 -8.38342205 3.80487263 -8.07206494 2.9706493 C-6.43734801 -0.95877273 -3.91737648 0.00946481 0 0 Z M106.6940636 176.12908131 C104.04100244 182.88937908 101.93222632 189.75821491 99.86984485 196.71892506 C99.49574482 197.97340443 99.12164478 199.2278838 98.73620838 200.5203777 C97.70629073 203.97456137 96.67998763 207.42980957 95.65437168 210.88527256 C94.77883633 213.83338787 93.90116856 216.78086655 93.02349037 219.7283445 C89.90735209 230.1933788 86.79968964 240.66092329 83.6940636 251.12908131 C83.32566112 252.37079594 83.32566112 252.37079594 82.94981617 253.63759571 C78.16271507 269.77333402 73.37865625 285.90997345 68.60348743 302.04924732 C67.60119363 305.43655534 66.59883333 308.82384366 65.59640735 312.21111256 C65.35027258 313.04284552 65.1041378 313.87457848 64.85054439 314.73151547 C61.4628477 326.1772444 58.06065963 337.61856298 54.64505428 349.05599362 C53.9577465 351.35805428 53.2709737 353.66027374 52.5844292 355.96256214 C52.36362847 356.70300172 52.14282774 357.4434413 51.91533607 358.20631844 C51.47805304 359.6727965 51.04079618 361.13928237 50.60356659 362.60577637 C49.34827205 366.81490234 48.08937862 371.02293036 46.82778305 375.23017174 C46.24552679 377.17416367 45.66510577 379.11869181 45.08552784 381.06348377 C44.38629545 383.40964175 43.68405958 385.75490751 42.97825855 388.09909779 C42.52240627 389.63350262 42.52240627 389.63350262 42.05734485 391.19890553 C41.79220081 392.08488423 41.52705677 392.97086293 41.25387806 393.88368946 C40.57310766 396.22854284 40.57310766 396.22854284 40.6940636 399.12908131 C84.9140636 399.12908131 129.1340636 399.12908131 174.6940636 399.12908131 C173.03417217 390.76748002 173.03417217 390.76748002 170.8725304 382.6188274 C170.51918628 381.42761784 170.16584217 380.23640827 169.80179065 379.00910145 C169.41566256 377.72356149 169.02949174 376.43803436 168.64328235 375.15251881 C168.23283408 373.77381811 167.82283285 372.39498426 167.41324085 371.01602894 C166.53469378 368.06085996 165.65359481 365.10646932 164.7704491 362.1526714 C162.62236834 354.96689097 160.48865514 347.77683784 158.3539471 340.58707577 C157.85983571 338.92309233 157.36556532 337.2591561 156.87113994 335.59526592 C151.78188725 318.46795448 146.76927584 301.31877313 141.77788395 284.16272694 C139.83875433 277.49871067 137.89724944 270.83538564 135.95578235 264.17205006 C135.7424872 263.43994438 135.52919204 262.70783871 135.3094334 261.95354801 C130.48883169 245.40929308 125.64651188 228.87142889 120.79004139 212.33766896 C119.89729555 209.29823309 119.00545748 206.25853329 118.11444324 203.21858937 C117.07944328 199.68761287 116.04259985 196.15718326 115.00423473 192.62719494 C114.44180365 190.71361616 113.88118208 188.79950584 113.32060474 186.88538319 C112.98719578 185.75360142 112.65378681 184.62181965 112.31027454 183.45574147 C112.0205376 182.46933674 111.73080066 181.48293202 111.43228382 180.46663624 C110.76454543 178.13913014 110.76454543 178.13913014 109.6940636 176.12908131 C108.7040636 176.12908131 107.7140636 176.12908131 106.6940636 176.12908131 Z " fill="#FFFFFF" transform="translate(266.305936396122,1407.8709186911583)"/>
<path d="M0 0 C60.06 0 120.12 0 182 0 C182.33 75.24 182.66 150.48 183 228 C185.31 225.69 187.62 223.38 190 221 C192.24984897 219.11520132 194.489607 217.28636146 196.8125 215.5 C197.42504639 215.02570557 198.03759277 214.55141113 198.66870117 214.06274414 C237.89716004 183.8636697 284.67986881 168.45641159 334.125 168.6875 C334.92305054 168.68899048 335.72110107 168.69048096 336.54333496 168.6920166 C356.08372693 168.75719989 375.1500281 170.67104367 394 176 C395.20011719 176.33515625 396.40023437 176.6703125 397.63671875 177.015625 C418.55409922 183.43782614 437.19311221 193.8504875 453 209 C453.845625 209.804375 454.69125 210.60875 455.5625 211.4375 C456.366875 212.283125 457.17125 213.12875 458 214 C458.96292969 214.98806641 458.96292969 214.98806641 459.9453125 215.99609375 C499.35030367 257.80382828 502.38575692 318.35477696 502.23213124 372.58874571 C502.22330325 376.51942388 502.22643021 380.45009776 502.22793579 384.38078308 C502.22897272 391.15362469 502.222823 397.92642706 502.21146011 404.6992588 C502.19504322 414.4910239 502.18998078 424.28277049 502.18748413 434.07454785 C502.18313206 449.97003803 502.16989139 465.86550741 502.15087891 481.76098633 C502.13245507 497.18058166 502.11835361 512.60017126 502.10986328 528.01977539 C502.10932729 528.98363944 502.10879129 529.94750349 502.10823905 530.94057554 C502.10407898 538.48123652 502.10016556 546.02189762 502.09632993 553.56255877 C502.07754201 590.37505828 502.03728687 627.18750559 502 664 C441.61 664 381.22 664 319 664 C318.96261719 642.4571875 318.92523437 620.914375 318.88671875 598.71875 C318.85644433 585.07421265 318.8254396 571.42968283 318.79101562 557.78515625 C318.77296703 550.61604873 318.7551033 543.44694078 318.73754883 536.27783203 C318.7342373 534.93014286 318.7342373 534.93014286 318.73085886 533.55522764 C318.6955445 519.07383306 318.67065477 504.59243853 318.64965298 490.11101693 C318.62784609 475.23542212 318.5947495 460.3598829 318.55129844 445.48433542 C318.52486572 436.31452453 318.50710874 427.14478284 318.50065396 417.97493577 C318.49537432 411.67621763 318.47907162 405.37758637 318.45433434 399.07891488 C318.44040699 395.45166318 318.43111534 391.82456667 318.43499184 388.19728661 C318.45598365 363.36034569 317.65110552 338.50365934 299.6875 319.1875 C287.92506547 308.30985036 272.23673868 304.68720916 256.56640625 304.84765625 C238.12567667 305.63537635 222.1890578 311.2328222 208 323 C206.76830078 323.93199219 206.76830078 323.93199219 205.51171875 324.8828125 C191.40523684 336.77350176 184.78625107 356.13210895 183.21512616 373.9109751 C182.85978461 379.01337129 182.84639232 384.10543842 182.84178162 389.21842957 C182.83684364 390.39980777 182.83190566 391.58118597 182.82681805 392.79836351 C182.81420187 396.04576425 182.80585831 399.29314217 182.79939139 402.54055989 C182.79132733 406.05438564 182.7776506 409.56819029 182.76467896 413.08200073 C182.7430007 419.15941386 182.72482495 425.23682921 182.70907402 431.31426048 C182.68629609 440.10104778 182.65816458 448.88781163 182.62875474 457.67457894 C182.58117553 471.9328632 182.53788536 486.19115709 182.49731445 500.44946289 C182.45791017 514.29452259 182.4164612 528.13957372 182.37231445 541.98461914 C182.36956495 542.84769454 182.36681544 543.71076993 182.36398262 544.59999913 C182.34246162 551.3504942 182.3208226 558.10098889 182.29914629 564.85148346 C182.1930523 597.90097163 182.09724706 630.95048233 182 664 C121.94 664 61.88 664 0 664 C0 444.88 0 225.76 0 0 Z " fill="#FFFFFF" transform="translate(1957,1374)"/>
<path d="M0 0 C60.39 0 120.78 0 183 0 C183.03738281 21.78257813 183.07476563 43.56515625 183.11328125 66.0078125 C183.14355306 79.79818314 183.17455578 93.58854629 183.20898438 107.37890625 C183.22703338 114.62386013 183.24489717 121.86881443 183.26245117 129.11376953 C183.2657627 130.47574516 183.2657627 130.47574516 183.26914114 131.86523545 C183.30447009 146.50638302 183.32935161 161.14753054 183.35034702 175.78870489 C183.37214224 190.8247515 183.4052279 205.860743 183.44870156 220.8967427 C183.47515425 230.16790055 183.49289657 239.43898979 183.49934604 248.71018349 C183.50461951 255.07569889 183.52090188 261.4411281 183.54566566 267.80659725 C183.55961386 271.47410617 183.56887668 275.14146104 183.56500816 278.80899811 C183.56092849 282.79796787 183.58011857 286.78650537 183.60127258 290.77542114 C183.59642501 291.91748964 183.59157743 293.05955815 183.58658296 294.23623478 C183.74848672 312.84360582 189.14559211 330.23916974 201.87109375 344.02734375 C213.47666689 355.05384463 229.39677496 358.9839638 245 359 C266.18017818 358.15400867 285.21978572 350.59147819 300 335 C316.96888818 315.11695571 318.61398105 293.15443096 318.54880548 268.20276809 C318.5438084 264.59424337 318.56200955 260.98582043 318.57722473 257.37733459 C318.60041393 251.14337212 318.60929077 244.90952556 318.60811615 238.67552185 C318.60643911 229.66251143 318.62686054 220.64965448 318.65247145 211.63668519 C318.69344432 197.00958797 318.71683779 182.38251857 318.72900391 167.75537109 C318.74085188 153.55645064 318.76113139 139.35758274 318.79248047 125.15869141 C318.79539874 123.82987826 318.79539874 123.82987826 318.79837596 122.4742204 C318.81365914 115.54487334 318.82942732 108.6155274 318.8453486 101.68618178 C318.92310477 67.79079643 318.95860346 33.89548695 319 0 C379.39 0 439.78 0 502 0 C502 159.72 502 319.44 502 484 C452.5 484 403 484 352 484 C350.15113181 474.13936967 348.34063495 464.30480212 346.73828125 454.40625 C346.54276169 453.20810669 346.34724213 452.00996338 346.14579773 450.7755127 C345.53292263 447.01729516 344.9226594 443.25865928 344.3125 439.5 C343.89275242 436.92314869 343.47283191 434.34632553 343.05273438 431.76953125 C342.03316286 425.51334403 341.01572452 419.25681289 340 413 C339.22293701 413.9170874 338.44587402 414.8341748 337.64526367 415.77905273 C320.97296234 435.3899544 303.05485173 451.62414085 281 465 C279.906875 465.67546875 278.81375 466.3509375 277.6875 467.046875 C254.1974845 481.07563426 227.79090603 488.43261764 201 493 C200.25008789 493.13277344 199.50017578 493.26554687 198.72753906 493.40234375 C177.33910624 497.06129718 154.42072204 495.91230668 133 493 C132.27103516 492.90348145 131.54207031 492.80696289 130.79101562 492.70751953 C94.67423079 487.71316849 58.54904415 470.87813688 36.00976562 441.53515625 C9.48088833 405.90737313 -0.22190301 361.812512 -0.12025452 317.95294189 C-0.12069159 316.57315131 -0.12156899 315.1933608 -0.12284368 313.81357074 C-0.12506195 310.05534961 -0.12110425 306.2971574 -0.11606562 302.53893995 C-0.11172266 298.47367325 -0.11321026 294.40840802 -0.1139679 290.34313965 C-0.1144907 283.31082019 -0.11136936 276.27851005 -0.10573006 269.24619293 C-0.09758204 259.07880654 -0.09499646 248.91142463 -0.09374207 238.74403533 C-0.09155673 222.24569548 -0.0849107 205.7473606 -0.07543945 189.24902344 C-0.06625192 173.22819035 -0.05918913 157.20735862 -0.05493164 141.18652344 C-0.05466364 140.1879284 -0.05439565 139.18933337 -0.05411953 138.16047788 C-0.05203995 130.35010467 -0.05008308 122.53973144 -0.04816496 114.7293582 C-0.03874163 76.48623424 -0.01862087 38.24312272 0 0 Z " fill="#FFFFFF" transform="translate(2566,1554)"/>
<path d="M0 0 C0.76701233 -0.00067474 1.53402466 -0.00134949 2.32427979 -0.00204468 C45.22842844 0.05752122 87.86990888 11.09143009 119.94140625 40.8984375 C124.04921899 45.08270699 127.6655794 49.61665011 131.25 54.25 C131.77078125 54.89324219 132.2915625 55.53648438 132.828125 56.19921875 C164.89422345 96.81040387 167.43448764 151.17199728 167.36606562 200.61504424 C167.36170144 204.57865425 167.36321173 208.54226289 167.3639679 212.50587463 C167.36448939 219.35421709 167.36138199 226.20254993 167.35573006 233.05088997 C167.34756393 242.95214366 167.34499462 252.85339276 167.34374207 262.75464945 C167.34155954 278.82317062 167.33492122 294.89168668 167.32543945 310.96020508 C167.31624459 326.55883764 167.30918541 342.1574688 167.30493164 357.75610352 C167.30466364 358.72921854 167.30439565 359.70233356 167.30411953 360.70493692 C167.30203981 368.31661015 167.30008299 375.92828342 167.29816496 383.53995669 C167.2887505 420.77664248 167.26862766 458.01331547 167.25 495.25 C106.86 495.25 46.47 495.25 -15.75 495.25 C-15.78738281 473.62339844 -15.82476563 451.99679687 -15.86328125 429.71484375 C-15.89355439 416.0201762 -15.92455813 402.32551618 -15.95898438 388.63085938 C-15.97703317 381.43579156 -15.99489693 374.24072333 -16.01245117 367.0456543 C-16.0157627 365.6930711 -16.0157627 365.6930711 -16.01914114 364.31316298 C-16.05446266 349.77613719 -16.07934836 335.23911146 -16.10034702 320.70205873 C-16.12214818 305.77109823 -16.15523941 290.84019318 -16.19870156 275.90927988 C-16.22514409 266.70415023 -16.24289387 257.49908959 -16.24934604 248.29392386 C-16.25462264 241.97231941 -16.27091537 235.65080163 -16.29566566 229.32924371 C-16.30960324 225.68793914 -16.31888074 222.04678942 -16.31500816 218.40545654 C-16.29432919 193.82080361 -17.28800626 169.55030856 -35.0625 150.4375 C-46.82493453 139.55985036 -62.51326132 135.93720916 -78.18359375 136.09765625 C-96.62432333 136.88537635 -112.5609422 142.4828222 -126.75 154.25 C-127.56984375 154.86875 -128.3896875 155.4875 -129.234375 156.125 C-143.57213264 168.23639775 -149.9751344 188.07861052 -151.54380023 206.18882906 C-151.88602782 211.26942236 -151.90361144 216.33997782 -151.90821838 221.4304657 C-151.91315636 222.60776035 -151.91809434 223.78505499 -151.92318195 224.99802524 C-151.93579759 228.23402442 -151.94414148 231.47000068 -151.95060861 234.7060169 C-151.958673 238.20757264 -151.9723496 241.70910721 -151.98532104 245.21064758 C-152.00699885 251.26677976 -152.02517476 257.32291418 -152.04092598 263.37906456 C-152.06370432 272.13508282 -152.09183577 280.89107755 -152.12124526 289.64707575 C-152.16882397 303.85544567 -152.21211427 318.06382526 -152.25268555 332.2722168 C-152.29209009 346.06877392 -152.33353911 359.86532244 -152.37768555 373.66186523 C-152.38043505 374.52192313 -152.38318456 375.38198102 -152.38601738 376.26810127 C-152.40753839 382.99499938 -152.42917741 389.72189711 -152.45085371 396.44879472 C-152.55694688 429.38251241 -152.65275265 462.31625271 -152.75 495.25 C-212.81 495.25 -272.87 495.25 -334.75 495.25 C-334.75 335.53 -334.75 175.81 -334.75 11.25 C-285.25 11.25 -235.75 11.25 -184.75 11.25 C-181.12 33.36 -177.49 55.47 -173.75 78.25 C-173.42 79.24 -173.09 80.23 -172.75 81.25 C-172.07130859 80.35474609 -172.07130859 80.35474609 -171.37890625 79.44140625 C-136.63715626 35.24254473 -83.80188401 9.04027564 -28.75 1.25 C-19.19497485 0.1141052 -9.60975592 0.00766163 0 0 Z " fill="#FFFFFF" transform="translate(1120.75,1542.75)"/>
<path d="M0 0 C3.28838277 -0.00217518 6.57642276 -0.02036865 9.86474609 -0.03930664 C76.59605615 -0.21619195 150.98894312 13.51830191 200.32177734 61.81030273 C226.82878433 88.44692834 235.47431892 119.23613424 237.32177734 156.18530273 C180.89177734 156.18530273 124.46177734 156.18530273 66.32177734 156.18530273 C65.66177734 151.89530273 65.00177734 147.60530273 64.32177734 143.18530273 C58.50129814 128.80529529 48.6880101 121.34339863 34.91162109 115.09155273 C23.50322813 110.82673293 10.64639572 110.80719516 -1.36572266 110.87280273 C-2.06177612 110.87462555 -2.75782959 110.87644836 -3.47497559 110.87832642 C-22.21944014 110.96069903 -42.08757172 111.86034682 -56.67822266 125.18530273 C-61.87464181 130.91468795 -61.9812017 135.51112973 -61.88134766 143.02514648 C-61.51300718 148.75567422 -59.3230869 151.77030855 -55.36572266 155.68530273 C-49.78254037 160.27076833 -43.41237399 162.80009124 -36.67822266 165.18530273 C-36.00887695 165.42603516 -35.33953125 165.66676758 -34.64990234 165.91479492 C-8.8220762 174.89161245 19.62827996 177.41402112 46.56777954 181.24853516 C91.8710227 187.7011691 139.7413001 194.81519911 180.32177734 217.18530273 C181.89572266 218.02834961 181.89572266 218.02834961 183.50146484 218.88842773 C191.35562594 223.25411728 198.40954554 228.48228795 205.32177734 234.18530273 C206.32208984 235.00643555 207.32240234 235.82756836 208.35302734 236.67358398 C233.09348453 258.12616462 245.70990442 286.95829594 249.00927734 319.06030273 C251.7301219 360.72323503 243.9052748 403.41497612 215.96386719 435.75708008 C212.82516004 439.30617508 209.58807065 442.7536909 206.32177734 446.18530273 C205.43232422 447.1540332 205.43232422 447.1540332 204.52490234 448.14233398 C168.90329818 485.79190076 110.4649544 497.67618731 61.32177734 503.18530273 C59.67720817 503.38029567 58.03267596 503.57560065 56.38818359 503.77124023 C-26.17241294 513.33150945 -125.24985364 505.16005446 -193.18994141 452.80249023 C-203.88395254 444.3143054 -213.41003012 435.07202074 -221.67822266 424.18530273 C-222.40138672 423.30100586 -223.12455078 422.41670898 -223.86962891 421.50561523 C-243.76040399 396.52972026 -249.11143737 368.52100841 -250.67822266 337.18530273 C-194.57822266 337.18530273 -138.47822266 337.18530273 -80.67822266 337.18530273 C-79.68822266 343.45530273 -78.69822266 349.72530273 -77.67822266 356.18530273 C-72.10549094 370.77274752 -60.57553424 380.23194615 -46.79150391 386.80639648 C-17.34505722 399.84854916 21.81441951 399.06818579 51.93115234 388.24780273 C54.1410389 387.33336692 56.21951249 386.32436259 58.32177734 385.18530273 C59.10294922 384.76635742 59.88412109 384.34741211 60.68896484 383.91577148 C67.58660717 379.81110892 70.81153556 374.71602809 73.32177734 367.18530273 C74.14182867 358.98478948 73.23109279 352.17179798 68.06005859 345.57592773 C44.03680971 322.12015717 -4.52142471 321.13143733 -35.67822266 316.12280273 C-71.42906562 310.37511283 -106.32425662 302.80952992 -140.67822266 291.18530273 C-141.43635254 290.93458008 -142.19448242 290.68385742 -142.97558594 290.42553711 C-177.19042847 279.0286156 -208.9134737 255.78327187 -225.72509766 223.34545898 C-242.42551698 189.57514204 -242.08109251 145.70050711 -230.40820312 110.28491211 C-221.96383388 85.99675976 -206.27881691 64.44153479 -185.92822266 48.68530273 C-185.31897949 48.2117334 -184.70973633 47.73816406 -184.08203125 47.25024414 C-178.81565472 43.20565593 -173.3934765 39.5701389 -167.67822266 36.18530273 C-166.56962891 35.50081055 -165.46103516 34.81631836 -164.31884766 34.11108398 C-116.36415466 5.21833361 -54.821301 -0.00403751 0 0 Z " fill="#FFFFFF" transform="translate(1621.67822265625,1542.814697265625)"/>
<path d="M0 0 C64.35 0 128.7 0 195 0 C195.020625 30.009375 195.04125 60.01875 195.0625 90.9375 C195.071604 100.43007568 195.08070801 109.92265137 195.09008789 119.70288086 C195.09460449 131.25109863 195.09460449 131.25109863 195.09544373 136.64894104 C195.09637933 140.43723633 195.10014244 144.22551775 195.10557556 148.0138092 C195.11240123 152.83646834 195.11449739 157.65910712 195.11307228 162.48177063 C195.11337056 164.25764648 195.11537314 166.033523 195.11921513 167.80939472 C195.12414198 170.19639667 195.12300736 172.5833181 195.12025452 174.97032166 C195.12316718 175.67536111 195.12607985 176.38040056 195.12908077 177.10680485 C195.11412483 181.88587517 195.11412483 181.88587517 194 183 C191.49586483 183.09773112 189.01933809 183.12995681 186.51475525 183.12025452 C185.72169167 183.12110894 184.92862808 183.12196337 184.11153227 183.12284368 C181.43362604 183.1245009 178.75578139 183.11897319 176.07788086 183.11352539 C174.16642763 183.11324354 172.25497429 183.1134012 170.34352112 183.1139679 C165.13712541 183.11425597 159.93075252 183.10835761 154.72436213 183.10139394 C149.28975841 183.09516208 143.85515423 183.09455674 138.42054749 183.09336853 C128.12161242 183.09025472 117.82268792 183.08204066 107.52375752 183.07201904 C93.61227228 183.05877466 79.70078419 183.0533584 65.78929424 183.04751682 C43.85952158 183.0381008 21.9297712 183.01818221 0 183 C0 122.61 0 62.22 0 0 Z " fill="#FFFFFF" transform="translate(3180,1855)"/>
</svg>
